<?xml version="1.0" encoding="UTF-8"?>
<svg id="Layer_1" data-name="Layer 1" xmlns="http://www.w3.org/2000/svg" viewBox="0 0 557.77 106.33">
  <defs>
    <style>
      .cls-1 {
        fill: #d47e69;
      }

      .cls-2 {
        fill: #224b4b;
      }
    </style>
  </defs>
  <g>
    <path class="cls-1" d="M20.05,63.6l2.23-.41c.67,0,1.01.37,1.01,1.11,0,2.36-.47,4.35-1.42,5.97-.95,1.62-2.13,2.77-3.54,3.44-2.3,1.15-4.25,1.72-5.87,1.72-3.11,0-5.44-1.16-6.99-3.49-1.55-2.33-2.33-5.84-2.33-10.53s1.28-10.78,3.85-18.28H1.11c-.74,0-1.11-.37-1.11-1.11s.57-1.94,1.72-3.59c1.15-1.65,2.36-2.48,3.65-2.48h4.56c4.79-10.67,10.43-19.88,16.91-27.65,1.69-2.03,3.76-3.91,6.23-5.67C35.53.88,37.43,0,38.78,0s2.36.61,3.04,1.82c1.75,2.84,3.81,13.2,6.18,31.09.81,7.7,2.21,15.65,4.2,23.85,1.99,8.2,3.83,12.98,5.52,14.33.4.27.61.61.61,1.01,0,1.01-1.44,1.96-4.3,2.83-2.87.88-5.06,1.32-6.58,1.32s-2.68-.19-3.49-.56c-.81-.37-1.32-.76-1.52-1.17-1.21-2.63-2.43-8.91-3.65-18.83l-.61-4.76c-.27-3.17-.54-5.57-.81-7.19l-.71-.51-21.16-.1c-.81,3.44-1.21,6.45-1.21,9.01s.08,4.44.25,5.62c.17,1.18.72,2.45,1.67,3.8.94,1.35,2.23,2.03,3.85,2.03ZM29.06,15.9c-5.33,6.68-9.18,13.37-11.54,20.05h.1c9.38,0,14.77.02,16.15.05,1.38.04,2.14-.02,2.28-.15s.24-.3.3-.51c-1.15-8.3-2.06-13.96-2.73-16.96-.68-3-1.35-4.51-2.03-4.51s-1.52.68-2.53,2.03Z"/>
    <path class="cls-1" d="M91.64,46.79l.4,3.54c0,1.28-1.21,1.92-3.65,1.92-4.93,0-7.39-1.86-7.39-5.57,0-.88.24-2.09.71-3.65.47-1.55.71-2.9.71-4.05s-.34-2.14-1.01-2.99c-.68-.84-1.66-1.27-2.94-1.27s-2.38.46-3.29,1.37-1.47,1.84-1.67,2.78l-.4,1.42c-.41,2.09-.61,5.59-.61,10.48s.07,8.74.2,11.54c.13,2.8.27,4.73.41,5.77.13,1.05.2,1.67.2,1.87,0,1.69-1.05,3.06-3.14,4.1-2.09,1.05-4.19,1.57-6.28,1.57s-3.14-.44-3.14-1.32l.51-3.14c.94-5.87,1.42-13.53,1.42-22.99s-.34-15.86-1.01-19.24c0-.81.71-1.22,2.13-1.22,3.65,0,6.08,1.25,7.29,3.75.07.27.19.4.35.4s.62-.3,1.37-.91c2.23-1.82,4.86-2.73,7.9-2.73,1.89,0,3.78.37,5.67,1.11,3.85,1.55,5.77,4.79,5.77,9.72l-.51,7.7Z"/>
    <path class="cls-1" d="M95.19,34.43l.3-4.05c.07-.61.54-.91,1.42-.91h3.54l-.41-8.1v-.41c0-1.55,1.18-3.04,3.54-4.46,2.36-1.42,4.52-2.13,6.48-2.13.61,0,.91.27.91.81v.1c-.27,1.82-.54,6.52-.81,14.08,2.97,0,4.86-.07,5.67-.2.81-.13,1.25-.2,1.32-.2.47,0,.71.41.71,1.22s-.37,1.84-1.11,3.09c-.74,1.25-1.55,1.91-2.43,1.97h-4.25c-.07,2.3-.1,6.16-.1,11.59s.05,9.91.15,13.42c.1,3.51.22,6.16.35,7.95.13,1.79.29,3.22.46,4.3.17,1.08.3,1.86.4,2.33.1.47.15.78.15.91,0,.67-.44,1.05-1.32,1.11-2.63,0-5.25-.37-7.85-1.11-2.6-.74-3.9-2.02-3.9-3.85,1.42-11.34,2.13-23.53,2.13-36.56-1.82,0-3.21.07-4.15.2h-.1c-.61,0-.98-.37-1.11-1.11Z"/>
    <path class="cls-2" d="M121.31,75.04c-1.01-.14-1.52-.44-1.52-.91l.3-1.21c1.69-3.65,2.53-16.77,2.53-39.39,0-10.8-.29-17.55-.86-20.25-.57-2.7-1.03-4.42-1.37-5.16l-.51-1.01c-.27-.27-.41-.66-.41-1.16s.41-.93,1.22-1.27c5.27-2.09,12.18-3.14,20.76-3.14,18.02,0,27.04,11.48,27.04,34.43,0,8.98-1.59,17.18-4.76,24.61-1.28,2.84-2.77,5.28-4.46,7.34-1.69,2.06-3.9,3.78-6.63,5.17-2.73,1.38-5.76,2.08-9.06,2.08-.68-.07-1.54-.17-2.58-.3-1.05-.14-2.6-.64-4.66-1.52-2.06-.88-3.46-2.03-4.2-3.44-2.5,3.44-6.11,5.17-10.83,5.17ZM140.65,8.31c-1.22,0-2.26.2-3.14.61-.88.41-1.32.91-1.32,1.52-.81,2.84-1.22,11.29-1.22,25.37s-.03,21.96-.1,23.65c1.28,2.03,3.27,3.04,5.97,3.04,4.79,0,8.4-2.65,10.83-7.95,2.43-5.3,3.65-11.95,3.65-19.95s-1.18-14.38-3.54-19.14c-2.36-4.76-6.08-7.14-11.14-7.14Z"/>
    <path class="cls-2" d="M204.25,61.67c0,2.57-.52,4.81-1.57,6.73-1.05,1.92-2.23,3.34-3.54,4.25s-2.85,1.64-4.61,2.18c-2.23.67-4.35,1.01-6.38,1.01-5.67,0-9.86-2.13-12.56-6.38-2.7-4.25-4.05-9.67-4.05-16.25s1.67-12.44,5.01-17.57c3.34-5.13,8.35-7.7,15.04-7.7,6.08,0,10.19,2.13,12.35,6.38.88,1.62,1.32,3.16,1.32,4.61s-.07,2.6-.2,3.44c-.14.84-.61,2.11-1.42,3.8-.81,1.69-1.89,3.21-3.24,4.56-1.35,1.35-3.48,2.63-6.38,3.85-2.9,1.22-6.31,2.02-10.23,2.43-.54,0-.81.24-.81.71,0,.61.22,1.5.66,2.68.44,1.18.93,2.18,1.47,2.99,1.48,1.89,3.68,2.83,6.58,2.83s5.37-.94,7.39-2.83c1.08-1.01,1.96-2.26,2.63-3.75.27-.54.62-.81,1.06-.81s.79.37,1.06,1.11c.27.74.41,1.32.41,1.72ZM182.17,48.21l.1,2.53c0,.41.27.61.81.61,2.16-.2,4.05-.76,5.67-1.67,1.62-.91,2.83-1.94,3.65-3.09,1.62-2.5,2.5-4.66,2.63-6.48l.1-1.22c0-3.65-1.45-5.47-4.35-5.47-2.16,0-3.92.95-5.27,2.84-2.23,2.97-3.34,6.95-3.34,11.95Z"/>
    <path class="cls-2" d="M240.6,60.05c0,2.9-.56,5.43-1.67,7.59-1.11,2.16-2.38,3.75-3.8,4.76-1.42,1.01-3.11,1.82-5.06,2.43-2.57.81-4.9,1.22-6.99,1.22-4.39,0-8.03-.86-10.94-2.58-2.9-1.72-4.35-4.47-4.35-8.25,0-2.23.61-4.05,1.82-5.47,1.89-2.09,4.15-3.14,6.78-3.14.81,0,1.21.37,1.21,1.11,0,.07-.15.59-.46,1.57-.3.98-.46,2.21-.46,3.7s.59,2.8,1.77,3.95c1.18,1.15,2.62,1.72,4.3,1.72s3.04-.29,4.05-.86c1.01-.57,1.72-1.3,2.13-2.18.61-1.21.91-2.36.91-3.44,0-1.96-.98-3.65-2.94-5.06-1.96-1.42-4.12-2.53-6.48-3.34-2.36-.81-4.52-2.16-6.48-4.05-1.96-1.89-2.94-4.25-2.94-7.09,0-4.86,1.53-8.51,4.61-10.94,3.07-2.43,7.24-3.65,12.51-3.65,2.29,0,4.71.32,7.24.96,2.53.64,3.8,1.72,3.8,3.24s-.25,2.92-.76,4.2c-.51,1.28-1.13,1.92-1.87,1.92-.41,0-.68-.15-.81-.46-.14-.3-.37-.66-.71-1.06-.34-.4-1.15-.93-2.43-1.57-1.28-.64-2.38-.96-3.29-.96s-1.52.02-1.82.05c-.3.04-.83.14-1.57.3-.74.17-1.42.42-2.03.76-1.55.88-2.33,2.16-2.33,3.85,0,1.08.24,1.87.71,2.38.47.51.84.9,1.11,1.16.27.27.74.59,1.42.96.67.37,1.15.62,1.42.76.27.14.88.42,1.82.86.94.44,1.55.73,1.82.86,7.16,3.38,10.73,7.97,10.73,13.77Z"/>
    <path class="cls-2" d="M246.98,70.89l1.11-23.59c0-5.6-.64-9.42-1.92-11.44-.4-.67-.88-1.18-1.42-1.52-.41-.13-.61-.41-.61-.81,0-1.21,1.72-2.4,5.16-3.54,3.44-1.15,5.96-1.72,7.54-1.72s2.41.41,2.48,1.22c0,1.35-.19,5.18-.56,11.49-.37,6.31-.56,12.95-.56,19.9s.4,11.27,1.21,12.96c.2.34.3.67.3,1.01,0,.88-1.28,1.32-3.85,1.32s-5.2-.68-7.9-2.03c-.68-.34-1.01-1.42-1.01-3.24ZM255.08,19.75l-2.43-.1c-1.82,0-3,.44-3.54,1.32-.14.2-.3.3-.51.3-.88,0-1.32-1.5-1.32-4.51s.46-4.91,1.37-5.72c.91-.81,2.5-1.22,4.76-1.22s3.8.39,4.61,1.16c.81.78,1.21,2.08,1.21,3.9s-.3,3.09-.91,3.8c-.61.71-1.69,1.06-3.24,1.06Z"/>
    <path class="cls-2" d="M272.6,33.07c1.48-1.52,3.44-2.8,5.87-3.85,2.43-1.05,4.76-1.57,6.99-1.57s4.49.51,6.78,1.52c.27,0,.47-.07.61-.2,1.75-1.75,4.32-2.63,7.7-2.63.81,0,1.21.37,1.21,1.11,0,.07-.07.37-.2.91-.14.54-.3,1.33-.51,2.38-.2,1.05-.37,2.31-.51,3.8-.47,3.85-.73,8.1-.76,12.76-.03,4.66-.05,9.32-.05,13.97l.3,21.27c0,6.82-1.76,12.49-5.27,17.01-1.42,1.82-3.56,3.41-6.43,4.76-2.87,1.35-6.23,2.03-10.08,2.03-.88-.54-1.32-1.08-1.32-1.62s.37-.98,1.11-1.32c4.25-1.96,7.29-6.6,9.11-13.92,1.82-7.33,2.73-18.45,2.73-33.37l-.2-14.18-.3-6.89c0-.61-.95-1.05-2.84-1.32-2.43,0-4.47.79-6.13,2.38-1.66,1.59-2.79,3.66-3.39,6.23-1.08,4.12-1.62,7.68-1.62,10.68s.49,5.65,1.47,7.95c.98,2.3,2.68,3.44,5.11,3.44.67,0,1.3-.13,1.87-.41.57-.27.96-.41,1.17-.41.67,0,1.01.68,1.01,2.03s-.1,2.45-.3,3.29c-.2.84-.61,1.77-1.22,2.79-1.35,2.23-3.98,3.34-7.9,3.34s-6.72-1.42-8.4-4.25c-1.76-2.9-2.77-5.5-3.04-7.8-.41-3.44-.61-5.7-.61-6.78s.02-1.94.05-2.58c.03-.64.2-1.92.51-3.85s.71-3.75,1.22-5.47c.51-1.72,1.3-3.65,2.38-5.77,1.08-2.13,2.36-3.95,3.85-5.47Z"/>
    <path class="cls-2" d="M306.32,74.64c1.21-7.29,1.82-16.03,1.82-26.23s-.3-16.81-.91-19.85c0-.88,1.01-1.32,3.04-1.32,3.1,0,5.16,1.18,6.18,3.54.07.2.24.3.51.3s.47-.07.61-.2c2.09-2.16,5.33-3.24,9.72-3.24s7.86,1.11,10.43,3.34c2.56,2.23,3.85,5.47,3.85,9.72,0,2.57-.22,6.21-.66,10.94-.44,4.73-.66,8.24-.66,10.53,0,5.47.91,9.42,2.73,11.85.27.34.41.67.41,1.01,0,.88-.95,1.32-2.84,1.32-8.37,0-12.56-3.71-12.56-11.14,0-2.83.64-6.78,1.92-11.85,1.28-5.06,1.92-8.91,1.92-11.54,0-5.4-2.23-8.1-6.68-8.1-2.16,0-3.8.64-4.91,1.92-1.11,1.28-1.74,2.75-1.87,4.4-.14,1.65-.2,4.78-.2,9.37,0,7.02.24,13.13.71,18.33l.2,2.23c0,1.89-1.23,3.36-3.7,4.41-2.46,1.05-4.59,1.57-6.38,1.57s-2.68-.44-2.68-1.32Z"/>
    <path class="cls-2" d="M378.42,61.67c0,2.57-.52,4.81-1.57,6.73-1.05,1.92-2.23,3.34-3.54,4.25s-2.85,1.64-4.61,2.18c-2.23.67-4.35,1.01-6.38,1.01-5.67,0-9.86-2.13-12.56-6.38-2.7-4.25-4.05-9.67-4.05-16.25s1.67-12.44,5.01-17.57c3.34-5.13,8.35-7.7,15.04-7.7,6.08,0,10.19,2.13,12.35,6.38.88,1.62,1.32,3.16,1.32,4.61s-.07,2.6-.2,3.44c-.14.84-.61,2.11-1.42,3.8-.81,1.69-1.89,3.21-3.24,4.56s-3.48,2.63-6.38,3.85c-2.9,1.22-6.31,2.02-10.23,2.43-.54,0-.81.24-.81.71,0,.61.22,1.5.66,2.68.44,1.18.93,2.18,1.47,2.99,1.48,1.89,3.68,2.83,6.58,2.83s5.37-.94,7.39-2.83c1.08-1.01,1.96-2.26,2.63-3.75.27-.54.62-.81,1.06-.81s.79.37,1.06,1.11c.27.74.41,1.32.41,1.72ZM356.35,48.21l.1,2.53c0,.41.27.61.81.61,2.16-.2,4.05-.76,5.67-1.67,1.62-.91,2.83-1.94,3.65-3.09,1.62-2.5,2.5-4.66,2.63-6.48l.1-1.22c0-3.65-1.45-5.47-4.35-5.47-2.16,0-3.92.95-5.27,2.84-2.23,2.97-3.34,6.95-3.34,11.95Z"/>
    <path class="cls-2" d="M413.86,46.79l.41,3.54c0,1.28-1.21,1.92-3.65,1.92-4.93,0-7.39-1.86-7.39-5.57,0-.88.24-2.09.71-3.65.47-1.55.71-2.9.71-4.05s-.34-2.14-1.01-2.99c-.68-.84-1.65-1.27-2.94-1.27s-2.38.46-3.29,1.37c-.91.91-1.47,1.84-1.67,2.78l-.41,1.42c-.4,2.09-.61,5.59-.61,10.48s.07,8.74.2,11.54c.13,2.8.27,4.73.4,5.77.13,1.05.2,1.67.2,1.87,0,1.69-1.05,3.06-3.14,4.1-2.09,1.05-4.19,1.57-6.28,1.57s-3.14-.44-3.14-1.32l.51-3.14c.95-5.87,1.42-13.53,1.42-22.99s-.34-15.86-1.01-19.24c0-.81.71-1.22,2.13-1.22,3.65,0,6.08,1.25,7.29,3.75.07.27.18.4.35.4s.62-.3,1.37-.91c2.23-1.82,4.86-2.73,7.9-2.73,1.89,0,3.78.37,5.67,1.11,3.85,1.55,5.77,4.79,5.77,9.72l-.51,7.7Z"/>
  </g>
  <path class="cls-2" d="M478.04,81.39l-14.55.61c-9.7,0-16.17-2.02-19.4-6.06-3.24-4.03-4.95-11.61-5.15-22.73-.21-11.11,2.32-19.1,7.58-23.94,5.25-4.85,14.14-7.27,26.67-7.27s21.72,2.33,27.58,6.97c5.85,4.65,8.79,12.23,8.79,22.73,0,26.27-2.63,39.4-7.88,39.4l-3.03-1.82c-2.83-5.26-9.7-7.88-20.61-7.88Z"/>
  <path class="cls-1" d="M546.86,1.82l3.03-1.82c5.25,0,7.88,13.13,7.88,39.4,0,10.5-2.94,18.08-8.79,22.73-5.86,4.64-15.06,6.97-27.58,6.97s-21.42-2.42-26.67-7.27c-5.26-4.85-7.79-12.83-7.58-23.94.2-11.12,1.91-18.7,5.15-22.73,3.23-4.04,9.7-6.06,19.4-6.06l14.55.61c10.91,0,17.78-2.62,20.61-7.88Z"/>
</svg>